PathFileType	4	(X/Y/Z)	C:\Users\avatar\Documents\avatar\mocap1\10002-20130731010438-Unnamed.trc
DataRate	CameraRate	NumFrames	NumMarkers	Units	OrigDataRate	OrigDataStartFrame	OrigNumFrames
400.00	400.00	      27	0	mm	400.00	329	      1313
Frame#	Time	
		

329	0.820							-1007.78784	825.80365	-310.22336	-505.21780	108.27513	272.81067	-351.30777	1152.08569	-115.63631	-636.12793	679.49298	99.59962	-557.91589	137.88565	369.91415	-2.93939	1014.38593	543.09790										-336.28558	979.43896	243.16257							-597.21667	107.40544	370.57758	
330	0.822	-820.71460	18.93413	287.21231	-351.25494	1152.11487	-115.70687	-1005.85284	827.54694	-309.23471	-504.91483	108.72283	272.80698				-636.08722	679.59711	99.49960				-2.88340	1014.39276	542.94141										-336.27783	979.46075	243.00465							-597.06934	107.52135	370.61093	
331	0.825							-1005.83740	827.56653	-309.25388	-504.64972	108.78896	272.85983	-820.85626	19.10777	287.29440	-633.53497	679.83002	98.72108	-351.71552	1152.18542	-115.66192	-2.90438	1014.38416	542.87518	-220.66139	97.13013	273.10391							-336.23666	979.51715	242.98184	
332	0.827	-821.68945	19.20732	286.90204	-351.54370	1152.18933	-115.74447	-1005.18671	828.38452	-308.87421	-504.94254	108.59661	272.71390				-633.27441	679.80414	98.53631				-2.90941	1014.38782	542.84393				-220.62920	97.12580	273.09692				-336.21707	979.55560	242.96042	
333	0.830				-351.67331	1152.32422	-115.78284	-1003.75793	829.53418	-308.54892	-505.02057	108.50648	272.63095	-822.32697	19.13965	286.82120	-637.56403	680.11121	97.22823	-220.54839	97.11494	273.07938	-2.90479	1014.41040	542.81592										-336.17975	979.52356	242.79312	
334	0.832	-821.88098	19.87016	287.30280	-351.71823	1152.31421	-115.81221	-1002.15802	830.95532	-307.47220	-505.18802	108.91788	272.61942				-634.30682	680.03168	96.25802				-3.04288	1014.42657	542.66376	-220.57237	97.11816	273.08459	-596.47180	108.14934	370.53442				-336.06863	979.65344	242.78598	
335	0.835	-822.19110	19.80499	287.17160	-352.14990	1152.24133	-116.30165	-1002.05383	831.13922	-307.68414	-505.00613	108.99225	272.52377	183.50227	771.19543	-261.58356	-635.33185	680.74579	95.87091	-630.73376	711.75964	270.83502	-3.07994	1014.38953	542.57666							-596.48669	108.20175	370.50864	-336.29486	979.64197	242.72322	-766.84991	993.66180	94.65542	
336	0.837	-822.59070	19.95121	287.29846	-352.18454	1152.56470	-116.64502	-1001.05426	832.25293	-307.29678	-505.02039	109.10002	272.29587				-634.77228	681.12469	95.58612				-3.01000	1014.43726	542.44373	-220.38043	97.09237	273.04294							-336.11426	979.69562	242.59920	-766.86700	993.64447	94.63181	
337	0.840	-822.61700	20.28781	287.52441	-352.38095	1152.67017	-116.73126	-1001.09027	832.51563	-307.32303	-504.74948	109.31945	272.28470	183.91949	774.56622	-261.55377	-633.25665	680.97021	94.97259	-1058.18713	193.92830	-130.16429	-2.93217	1014.71942	542.17334				-595.55969	108.90877	370.57996							-766.95746	993.63812	94.61553	
338	0.842	-822.68445	20.49417	287.63507	-352.33630	1152.89905	-116.98248	-999.59607	834.00073	-306.43164	-504.93372	109.09695	272.19693				-631.85413	681.92902	94.53656				-3.12543	1014.72717	542.08362	183.58060	775.22296	-261.93091				-1058.60278	194.02452	-130.39272				-766.98962	993.63281	94.59492	
339	0.845	-822.83368	20.62345	287.72055	-352.36404	1152.91235	-117.01600	-999.29047	834.32397	-306.46719	-504.91458	109.21421	272.05228	184.60249	778.15668	-261.62088	-631.42975	681.88470	93.74048	-1058.59338	194.03963	-130.42273	-3.43200	1014.34460	541.66870													-767.00305	993.61133	94.57565	
340	0.848	-823.10010	20.83860	287.87894	-352.03946	1153.58545	-117.02453	-997.69220	835.76660	-305.55038	-504.85910	109.26961	272.05106	184.59917	779.20020	-261.61200	-630.95728	682.03088	93.44160				-3.45870	1014.34882	541.63031	-1058.61597	194.04492	-130.44408	-595.63684	109.26565	370.14407							-767.10785	993.58978	94.55695	
341	0.850	-823.78717	20.75033	287.82639	-352.10696	1153.59863	-117.05476	-997.09045	836.37817	-305.41110	-504.91919	109.29730	272.04755	184.24841	779.88531	-262.02319	-629.21680	682.17511	92.86864	-1058.61536	194.05475	-130.46062	-3.48663	1014.34985	541.61816							-220.35771	97.08931	273.03799				-767.21301	993.59509	94.51121	
342	0.853	-823.67670	21.34764	288.25476	-352.14795	1153.59729	-117.07538	-996.32892	837.15833	-305.33780	-505.08163	109.28709	272.00412	184.19859	781.37842	-262.52258	-631.50397	682.60754	92.32191	-1058.66382	194.06877	-130.49916	-3.52230	1014.35126	541.60205													-767.23145	993.57300	94.48838	
343	0.855	-823.70526	21.41702	288.28751	-352.38214	1153.68494	-117.06063	-994.89478	838.47540	-304.31003	-505.28131	109.20788	271.90961	184.97983	783.89545	-261.72745	-633.74347	682.51135	91.79334	-1058.68396	194.07967	-130.52747	-3.54743	1014.35376	541.57770													-767.30750	993.57190	94.46383	
344	0.858	-823.72546	21.48317	288.35025	-353.96719	1152.94104	-118.03764	-993.58807	839.68866	-303.66428	-505.17230	109.21843	271.93546	184.37978	784.65649	-262.20285	-635.08881	682.83801	91.41967	-1058.70068	194.08037	-130.53387	-3.58473	1014.37122	541.42798													-766.05951	993.56268	94.10204	
345	0.860				-354.23398	1152.99963	-118.03177				-505.56128	109.17904	271.83850	184.07491	785.43121	-262.75574	-631.17755	682.66864	90.26991	-1058.73743	194.08998	-130.54163	-3.60971	1014.37219	541.41681	-559.38544	138.36263	368.40048										-766.13110	993.53864	94.07005	
346	0.863	-484.63983	1028.81177	385.59747	-354.32062	1153.11658	-118.14359				-505.55817	109.24586	271.85446	184.87103	788.01740	-261.98773	-629.04846	682.78259	89.62292	-1058.74817	194.08881	-130.53790	-3.59214	1014.38788	541.28870	-559.42023	138.32542	368.40137										-766.10638	993.57477	94.01543	
347	0.865				-354.34448	1153.11890	-118.13960	-484.55878	1028.84961	385.49295	-505.60007	109.19530	271.82813	185.12697	789.26160	-262.27206	-627.09113	682.53955	88.94935	-1059.00415	194.14151	-130.65916	-3.62069	1014.38947	541.27234	-559.39026	138.37556	368.41730										-767.96613	993.75714	93.55682	
348	0.868	-483.64957	1028.64807	385.51151							-505.61795	109.20080	271.82962	184.76929	790.03485	-262.79254	-627.19702	682.56891	88.88076	-1059.04150	194.15329	-130.67355	-3.64032	1014.39166	541.25146	-559.40686	138.37891	368.42142										-769.41473	993.65497	93.15694	
349	0.870				-483.40549	1028.61755	385.32501				-505.67252	109.19792	271.82437	184.04054	790.60797	-262.85678	-627.46686	682.63062	88.80193	-1059.06946	194.16042	-130.68520	-3.65051	1014.39197	541.24768	-559.41058	138.38545	368.42029										-769.54272	993.67664	93.15886	
350	0.873	-483.37735	1028.54053	385.26797							-505.68527	109.20309	271.83823	185.14874	793.88049	-262.14337	-628.91278	683.72968	87.33327	-1059.09387	194.16646	-130.69861	-3.70171	1014.40717	541.11481	-559.39050	138.42360	368.45166										-769.68048	993.66321	93.09091	
351	0.875	-483.34558	1028.41895	385.12357							-505.70755	109.20564	271.84329	184.57394	794.49188	-262.42020	-628.80029	683.94202	87.03734	-1059.40076	194.19214	-130.67754	-3.71292	1014.40894	541.09882	-559.40436	138.40729	368.46820										-769.91907	993.69855	93.01694	
352	0.877	-483.64459	1028.36584	385.07013							-505.84653	109.21102	271.88577	184.14995	795.23792	-262.82553	-628.03094	684.73846	86.55871	-1059.46399	194.20334	-130.70038	-3.79979	1014.42340	540.96814	-559.40247	138.42473	368.48444										-770.16003	993.72876	92.95589	
353	0.880	-485.80582	1028.37329	384.84940							-506.02957	109.13055	271.99939	183.80875	795.81726	-263.07983	-630.52686	686.11725	85.28036	-1059.53296	194.21144	-130.70523	-3.80802	1014.42432	540.95911	-559.44110	138.38327	368.47375										-770.36572	993.73395	92.92297	
354	0.882	-485.98120	1028.29309	384.68298							-506.26251	109.05863	272.08560	184.72437	799.20880	-262.34802	-629.99481	686.28864	85.08036	-1059.74341	194.27614	-130.86278	-3.81642	1014.42584	540.94543	-559.36957	138.44978	368.49924										-770.46991	993.74927	92.90804	
355	0.885	-485.02448	1028.74890	385.49390	-1700.92224	892.95813	-445.26236				-506.10703	108.79366	272.11108	184.57680	799.77283	-262.75198	-627.71967	686.80957	84.41760	-1060.04224	194.35114	-130.98523	-3.81638	1014.42548	540.94885	-559.39722	138.42714	368.50964										-773.74689	993.84351	92.13761	
